<mxfile host="app.diagrams.net" agent="Mozilla/5.0 (Windows NT 10.0; Win64; x64) AppleWebKit/537.36 (KHTML, like Gecko) Chrome/138.0.0.0 Safari/537.36" version="28.0.7">
  <diagram name="Page-1" id="RyT796LHBtlwFpkHGxZ0">
    <mxGraphModel dx="1426" dy="743" grid="1" gridSize="10" guides="1" tooltips="1" connect="1" arrows="1" fold="1" page="1" pageScale="1" pageWidth="850" pageHeight="1100" math="0" shadow="0">
      <root>
        <mxCell id="0" />
        <mxCell id="1" parent="0" />
        <mxCell id="6ueODUvImwOHwKbPPp0Y-63" value="" style="endArrow=none;html=1;rounded=0;" parent="1" edge="1">
          <mxGeometry width="50" height="50" relative="1" as="geometry">
            <mxPoint x="600" y="480" as="sourcePoint" />
            <mxPoint x="600" y="130" as="targetPoint" />
          </mxGeometry>
        </mxCell>
        <mxCell id="6ueODUvImwOHwKbPPp0Y-1" value="Login Gateway&lt;div&gt;(Citizen/Official/&lt;span style=&quot;background-color: transparent; color: light-dark(rgb(0, 0, 0), rgb(255, 255, 255));&quot;&gt;Admin)&lt;/span&gt;&lt;/div&gt;" style="rounded=0;whiteSpace=wrap;html=1;fillColor=#dae8fc;strokeColor=#6c8ebf;" parent="1" vertex="1">
          <mxGeometry x="380" y="40" width="165" height="60" as="geometry" />
        </mxCell>
        <mxCell id="6ueODUvImwOHwKbPPp0Y-2" value="Register the feed / Upload photos or videos to the app using a camera feed" style="rounded=0;whiteSpace=wrap;html=1;fillColor=#fff2cc;strokeColor=#d6b656;" parent="1" vertex="1">
          <mxGeometry x="80" y="210" width="165" height="60" as="geometry" />
        </mxCell>
        <mxCell id="6ueODUvImwOHwKbPPp0Y-3" value="Registered Official Flow" style="rounded=0;whiteSpace=wrap;html=1;fillColor=#dae8fc;strokeColor=#6c8ebf;" parent="1" vertex="1">
          <mxGeometry x="380" y="120" width="165" height="60" as="geometry" />
        </mxCell>
        <mxCell id="6ueODUvImwOHwKbPPp0Y-4" value="Admin flow" style="rounded=0;whiteSpace=wrap;html=1;fillColor=#dae8fc;strokeColor=#6c8ebf;" parent="1" vertex="1">
          <mxGeometry x="660" y="120" width="165" height="60" as="geometry" />
        </mxCell>
        <mxCell id="6ueODUvImwOHwKbPPp0Y-5" value="Citizen Flow" style="rounded=0;whiteSpace=wrap;html=1;fillColor=#dae8fc;strokeColor=#6c8ebf;" parent="1" vertex="1">
          <mxGeometry x="80" y="120" width="165" height="60" as="geometry" />
        </mxCell>
        <mxCell id="6ueODUvImwOHwKbPPp0Y-6" value="View the Heatmap" style="rounded=0;whiteSpace=wrap;html=1;fillColor=#f8cecc;strokeColor=#b85450;" parent="1" vertex="1">
          <mxGeometry x="280" y="210" width="160" height="60" as="geometry" />
        </mxCell>
        <mxCell id="6ueODUvImwOHwKbPPp0Y-7" value="Alert posting and&amp;nbsp;&lt;div&gt;Feedback loop&lt;div&gt;(Get notified/Leave suggestions)&lt;/div&gt;&lt;/div&gt;" style="rounded=0;whiteSpace=wrap;html=1;fillColor=#fff2cc;strokeColor=#d6b656;" parent="1" vertex="1">
          <mxGeometry x="80" y="390" width="165" height="70" as="geometry" />
        </mxCell>
        <mxCell id="6ueODUvImwOHwKbPPp0Y-8" value="Gamified Rewards for confirmed reports" style="rounded=0;whiteSpace=wrap;html=1;fillColor=#dae8fc;strokeColor=#6c8ebf;" parent="1" vertex="1">
          <mxGeometry x="80" y="560" width="165" height="60" as="geometry" />
        </mxCell>
        <mxCell id="6ueODUvImwOHwKbPPp0Y-9" value="View and operate on reports based on the Heatmap" style="rounded=0;whiteSpace=wrap;html=1;fillColor=#f8cecc;strokeColor=#b85450;" parent="1" vertex="1">
          <mxGeometry x="460" y="210" width="160" height="60" as="geometry" />
        </mxCell>
        <mxCell id="6ueODUvImwOHwKbPPp0Y-10" value="Register an allotment to the cleanup request" style="rounded=0;whiteSpace=wrap;html=1;fillColor=#dae8fc;strokeColor=#6c8ebf;" parent="1" vertex="1">
          <mxGeometry x="370" y="310" width="160" height="60" as="geometry" />
        </mxCell>
        <mxCell id="6ueODUvImwOHwKbPPp0Y-11" value="Verify the proof of completion by on-site personnel and mar the request as attended to" style="rounded=0;whiteSpace=wrap;html=1;fillColor=#dae8fc;strokeColor=#6c8ebf;" parent="1" vertex="1">
          <mxGeometry x="370" y="390" width="160" height="60" as="geometry" />
        </mxCell>
        <mxCell id="6ueODUvImwOHwKbPPp0Y-12" value="CMS Login" style="rounded=0;whiteSpace=wrap;html=1;fillColor=#dae8fc;strokeColor=#6c8ebf;" parent="1" vertex="1">
          <mxGeometry x="660" y="210" width="165" height="60" as="geometry" />
        </mxCell>
        <mxCell id="6ueODUvImwOHwKbPPp0Y-13" value="Manage Data and Override Actions" style="rounded=0;whiteSpace=wrap;html=1;fillColor=#dae8fc;strokeColor=#6c8ebf;" parent="1" vertex="1">
          <mxGeometry x="630" y="310" width="165" height="60" as="geometry" />
        </mxCell>
        <mxCell id="6ueODUvImwOHwKbPPp0Y-14" value="Manually Refresh/Update Heatmap" style="rounded=0;whiteSpace=wrap;html=1;fillColor=#f8cecc;strokeColor=#b85450;" parent="1" vertex="1">
          <mxGeometry x="630" y="390" width="165" height="60" as="geometry" />
        </mxCell>
        <mxCell id="6ueODUvImwOHwKbPPp0Y-15" value="Manage actively catered requests" style="rounded=0;whiteSpace=wrap;html=1;fillColor=#dae8fc;strokeColor=#6c8ebf;" parent="1" vertex="1">
          <mxGeometry x="630" y="470" width="165" height="60" as="geometry" />
        </mxCell>
        <mxCell id="6ueODUvImwOHwKbPPp0Y-16" value="Monitor generated images by the YoloV8 backend routing" style="rounded=0;whiteSpace=wrap;html=1;fillColor=#fff2cc;strokeColor=#d6b656;" parent="1" vertex="1">
          <mxGeometry x="630" y="550" width="165" height="60" as="geometry" />
        </mxCell>
        <mxCell id="6ueODUvImwOHwKbPPp0Y-18" value="" style="endArrow=none;html=1;rounded=0;" parent="1" edge="1">
          <mxGeometry width="50" height="50" relative="1" as="geometry">
            <mxPoint x="160" y="110" as="sourcePoint" />
            <mxPoint x="740" y="110" as="targetPoint" />
          </mxGeometry>
        </mxCell>
        <mxCell id="6ueODUvImwOHwKbPPp0Y-19" value="" style="endArrow=classic;html=1;rounded=0;exitX=0.483;exitY=1.008;exitDx=0;exitDy=0;exitPerimeter=0;" parent="1" source="6ueODUvImwOHwKbPPp0Y-1" edge="1">
          <mxGeometry width="50" height="50" relative="1" as="geometry">
            <mxPoint x="460" y="240" as="sourcePoint" />
            <mxPoint x="460" y="110" as="targetPoint" />
          </mxGeometry>
        </mxCell>
        <mxCell id="6ueODUvImwOHwKbPPp0Y-20" value="" style="endArrow=classic;html=1;rounded=0;entryX=0.485;entryY=0.009;entryDx=0;entryDy=0;entryPerimeter=0;" parent="1" target="6ueODUvImwOHwKbPPp0Y-5" edge="1">
          <mxGeometry width="50" height="50" relative="1" as="geometry">
            <mxPoint x="160" y="110" as="sourcePoint" />
            <mxPoint x="510" y="190" as="targetPoint" />
          </mxGeometry>
        </mxCell>
        <mxCell id="6ueODUvImwOHwKbPPp0Y-21" value="" style="endArrow=classic;html=1;rounded=0;entryX=0.486;entryY=0.01;entryDx=0;entryDy=0;entryPerimeter=0;" parent="1" target="6ueODUvImwOHwKbPPp0Y-4" edge="1">
          <mxGeometry width="50" height="50" relative="1" as="geometry">
            <mxPoint x="740" y="110" as="sourcePoint" />
            <mxPoint x="500" y="220" as="targetPoint" />
          </mxGeometry>
        </mxCell>
        <mxCell id="6ueODUvImwOHwKbPPp0Y-22" value="" style="endArrow=classic;html=1;rounded=0;entryX=0.487;entryY=0.008;entryDx=0;entryDy=0;entryPerimeter=0;" parent="1" target="6ueODUvImwOHwKbPPp0Y-3" edge="1">
          <mxGeometry width="50" height="50" relative="1" as="geometry">
            <mxPoint x="460" y="110" as="sourcePoint" />
            <mxPoint x="520" y="160" as="targetPoint" />
          </mxGeometry>
        </mxCell>
        <mxCell id="6ueODUvImwOHwKbPPp0Y-23" value="" style="endArrow=classic;html=1;rounded=0;exitX=0.485;exitY=1.001;exitDx=0;exitDy=0;entryX=0.484;entryY=-0.002;entryDx=0;entryDy=0;exitPerimeter=0;entryPerimeter=0;" parent="1" source="6ueODUvImwOHwKbPPp0Y-5" target="6ueODUvImwOHwKbPPp0Y-2" edge="1">
          <mxGeometry width="50" height="50" relative="1" as="geometry">
            <mxPoint x="440" y="300" as="sourcePoint" />
            <mxPoint x="490" y="250" as="targetPoint" />
          </mxGeometry>
        </mxCell>
        <mxCell id="6ueODUvImwOHwKbPPp0Y-27" value="" style="endArrow=none;html=1;rounded=0;" parent="1" edge="1">
          <mxGeometry width="50" height="50" relative="1" as="geometry">
            <mxPoint x="160" y="190" as="sourcePoint" />
            <mxPoint x="340" y="190" as="targetPoint" />
          </mxGeometry>
        </mxCell>
        <mxCell id="6ueODUvImwOHwKbPPp0Y-28" value="" style="endArrow=none;html=1;rounded=0;entryX=0;entryY=0.5;entryDx=0;entryDy=0;" parent="1" target="6ueODUvImwOHwKbPPp0Y-3" edge="1">
          <mxGeometry width="50" height="50" relative="1" as="geometry">
            <mxPoint x="340" y="150" as="sourcePoint" />
            <mxPoint x="340" y="160" as="targetPoint" />
          </mxGeometry>
        </mxCell>
        <mxCell id="6ueODUvImwOHwKbPPp0Y-29" value="" style="endArrow=classic;html=1;rounded=0;entryX=0.369;entryY=0.002;entryDx=0;entryDy=0;entryPerimeter=0;" parent="1" target="6ueODUvImwOHwKbPPp0Y-6" edge="1">
          <mxGeometry width="50" height="50" relative="1" as="geometry">
            <mxPoint x="340" y="150" as="sourcePoint" />
            <mxPoint x="340" y="160" as="targetPoint" />
          </mxGeometry>
        </mxCell>
        <mxCell id="6ueODUvImwOHwKbPPp0Y-30" value="" style="endArrow=none;html=1;rounded=0;exitX=1;exitY=0.5;exitDx=0;exitDy=0;" parent="1" source="6ueODUvImwOHwKbPPp0Y-3" edge="1">
          <mxGeometry width="50" height="50" relative="1" as="geometry">
            <mxPoint x="560" y="149.76" as="sourcePoint" />
            <mxPoint x="580" y="150" as="targetPoint" />
          </mxGeometry>
        </mxCell>
        <mxCell id="6ueODUvImwOHwKbPPp0Y-32" value="" style="endArrow=classic;html=1;rounded=0;entryX=0.75;entryY=0;entryDx=0;entryDy=0;" parent="1" target="6ueODUvImwOHwKbPPp0Y-9" edge="1">
          <mxGeometry width="50" height="50" relative="1" as="geometry">
            <mxPoint x="580" y="150" as="sourcePoint" />
            <mxPoint x="610" y="210" as="targetPoint" />
          </mxGeometry>
        </mxCell>
        <mxCell id="6ueODUvImwOHwKbPPp0Y-35" value="" style="endArrow=classic;html=1;rounded=0;exitX=0.75;exitY=1;exitDx=0;exitDy=0;" parent="1" source="6ueODUvImwOHwKbPPp0Y-9" edge="1">
          <mxGeometry width="50" height="50" relative="1" as="geometry">
            <mxPoint x="390" y="290" as="sourcePoint" />
            <mxPoint x="580" y="290" as="targetPoint" />
          </mxGeometry>
        </mxCell>
        <mxCell id="6ueODUvImwOHwKbPPp0Y-37" value="" style="endArrow=classic;html=1;rounded=0;entryX=0.5;entryY=0;entryDx=0;entryDy=0;" parent="1" target="6ueODUvImwOHwKbPPp0Y-10" edge="1">
          <mxGeometry width="50" height="50" relative="1" as="geometry">
            <mxPoint x="450" y="290" as="sourcePoint" />
            <mxPoint x="460" y="270" as="targetPoint" />
          </mxGeometry>
        </mxCell>
        <mxCell id="6ueODUvImwOHwKbPPp0Y-38" value="" style="endArrow=classic;html=1;rounded=0;exitX=0.5;exitY=1;exitDx=0;exitDy=0;entryX=0.5;entryY=0;entryDx=0;entryDy=0;" parent="1" source="6ueODUvImwOHwKbPPp0Y-10" target="6ueODUvImwOHwKbPPp0Y-11" edge="1">
          <mxGeometry width="50" height="50" relative="1" as="geometry">
            <mxPoint x="400" y="310" as="sourcePoint" />
            <mxPoint x="450" y="260" as="targetPoint" />
          </mxGeometry>
        </mxCell>
        <mxCell id="6ueODUvImwOHwKbPPp0Y-39" value="" style="endArrow=classic;html=1;rounded=0;exitX=0.5;exitY=1;exitDx=0;exitDy=0;entryX=0.5;entryY=0;entryDx=0;entryDy=0;" parent="1" source="6ueODUvImwOHwKbPPp0Y-4" target="6ueODUvImwOHwKbPPp0Y-12" edge="1">
          <mxGeometry width="50" height="50" relative="1" as="geometry">
            <mxPoint x="520" y="340" as="sourcePoint" />
            <mxPoint x="570" y="290" as="targetPoint" />
          </mxGeometry>
        </mxCell>
        <mxCell id="6ueODUvImwOHwKbPPp0Y-40" value="" style="endArrow=none;html=1;rounded=0;entryX=0.97;entryY=1.005;entryDx=0;entryDy=0;entryPerimeter=0;" parent="1" target="6ueODUvImwOHwKbPPp0Y-12" edge="1">
          <mxGeometry width="50" height="50" relative="1" as="geometry">
            <mxPoint x="820" y="660" as="sourcePoint" />
            <mxPoint x="570" y="290" as="targetPoint" />
          </mxGeometry>
        </mxCell>
        <mxCell id="6ueODUvImwOHwKbPPp0Y-41" value="" style="endArrow=classic;html=1;rounded=0;entryX=1;entryY=0.5;entryDx=0;entryDy=0;" parent="1" target="6ueODUvImwOHwKbPPp0Y-13" edge="1">
          <mxGeometry width="50" height="50" relative="1" as="geometry">
            <mxPoint x="820" y="340" as="sourcePoint" />
            <mxPoint x="600" y="420" as="targetPoint" />
          </mxGeometry>
        </mxCell>
        <mxCell id="6ueODUvImwOHwKbPPp0Y-42" value="" style="endArrow=classic;html=1;rounded=0;entryX=1;entryY=0.5;entryDx=0;entryDy=0;" parent="1" target="6ueODUvImwOHwKbPPp0Y-16" edge="1">
          <mxGeometry width="50" height="50" relative="1" as="geometry">
            <mxPoint x="820" y="580" as="sourcePoint" />
            <mxPoint x="670" y="400" as="targetPoint" />
          </mxGeometry>
        </mxCell>
        <mxCell id="6ueODUvImwOHwKbPPp0Y-43" value="" style="endArrow=classic;html=1;rounded=0;entryX=1;entryY=0.5;entryDx=0;entryDy=0;" parent="1" target="6ueODUvImwOHwKbPPp0Y-15" edge="1">
          <mxGeometry width="50" height="50" relative="1" as="geometry">
            <mxPoint x="820" y="500" as="sourcePoint" />
            <mxPoint x="670" y="400" as="targetPoint" />
          </mxGeometry>
        </mxCell>
        <mxCell id="6ueODUvImwOHwKbPPp0Y-44" value="" style="endArrow=classic;html=1;rounded=0;entryX=1;entryY=0.5;entryDx=0;entryDy=0;" parent="1" target="6ueODUvImwOHwKbPPp0Y-14" edge="1">
          <mxGeometry width="50" height="50" relative="1" as="geometry">
            <mxPoint x="820" y="420" as="sourcePoint" />
            <mxPoint x="670" y="400" as="targetPoint" />
          </mxGeometry>
        </mxCell>
        <mxCell id="6ueODUvImwOHwKbPPp0Y-46" value="" style="edgeStyle=orthogonalEdgeStyle;rounded=0;orthogonalLoop=1;jettySize=auto;html=1;" parent="1" source="6ueODUvImwOHwKbPPp0Y-45" target="6ueODUvImwOHwKbPPp0Y-8" edge="1">
          <mxGeometry relative="1" as="geometry" />
        </mxCell>
        <mxCell id="6ueODUvImwOHwKbPPp0Y-45" value="Received and post auto-generated report" style="rounded=0;whiteSpace=wrap;html=1;fillColor=#dae8fc;strokeColor=#6c8ebf;" parent="1" vertex="1">
          <mxGeometry x="80" y="480" width="165" height="60" as="geometry" />
        </mxCell>
        <mxCell id="6ueODUvImwOHwKbPPp0Y-47" value="" style="endArrow=classic;html=1;rounded=0;exitX=0.5;exitY=1;exitDx=0;exitDy=0;entryX=0.5;entryY=0;entryDx=0;entryDy=0;" parent="1" source="6ueODUvImwOHwKbPPp0Y-7" target="6ueODUvImwOHwKbPPp0Y-45" edge="1">
          <mxGeometry width="50" height="50" relative="1" as="geometry">
            <mxPoint x="320" y="510" as="sourcePoint" />
            <mxPoint x="370" y="460" as="targetPoint" />
          </mxGeometry>
        </mxCell>
        <mxCell id="6ueODUvImwOHwKbPPp0Y-48" value="Predictive Cleanliness&lt;div&gt;Engine&lt;/div&gt;" style="rounded=0;whiteSpace=wrap;html=1;fillColor=#fff2cc;strokeColor=#d6b656;" parent="1" vertex="1">
          <mxGeometry x="630" y="630" width="165" height="60" as="geometry" />
        </mxCell>
        <mxCell id="6ueODUvImwOHwKbPPp0Y-49" value="Detection and classification of waste using Python/CV/YoloV8" style="rounded=0;whiteSpace=wrap;html=1;fillColor=#fff2cc;strokeColor=#d6b656;" parent="1" vertex="1">
          <mxGeometry x="80" y="310" width="165" height="60" as="geometry" />
        </mxCell>
        <mxCell id="6ueODUvImwOHwKbPPp0Y-50" value="" style="endArrow=classic;html=1;rounded=0;exitX=0.481;exitY=0.995;exitDx=0;exitDy=0;entryX=0.481;entryY=0;entryDx=0;entryDy=0;entryPerimeter=0;exitPerimeter=0;" parent="1" source="6ueODUvImwOHwKbPPp0Y-2" target="6ueODUvImwOHwKbPPp0Y-49" edge="1">
          <mxGeometry width="50" height="50" relative="1" as="geometry">
            <mxPoint x="460" y="420" as="sourcePoint" />
            <mxPoint x="510" y="370" as="targetPoint" />
          </mxGeometry>
        </mxCell>
        <mxCell id="6ueODUvImwOHwKbPPp0Y-51" value="" style="endArrow=classic;html=1;rounded=0;exitX=0.483;exitY=1.001;exitDx=0;exitDy=0;exitPerimeter=0;entryX=0.484;entryY=0.003;entryDx=0;entryDy=0;entryPerimeter=0;" parent="1" source="6ueODUvImwOHwKbPPp0Y-49" target="6ueODUvImwOHwKbPPp0Y-7" edge="1">
          <mxGeometry width="50" height="50" relative="1" as="geometry">
            <mxPoint x="260" y="420" as="sourcePoint" />
            <mxPoint x="310" y="370" as="targetPoint" />
          </mxGeometry>
        </mxCell>
        <mxCell id="6ueODUvImwOHwKbPPp0Y-52" value="" style="endArrow=none;html=1;rounded=0;entryX=0;entryY=0.5;entryDx=0;entryDy=0;" parent="1" target="6ueODUvImwOHwKbPPp0Y-16" edge="1">
          <mxGeometry width="50" height="50" relative="1" as="geometry">
            <mxPoint x="280" y="580" as="sourcePoint" />
            <mxPoint x="440" y="390" as="targetPoint" />
          </mxGeometry>
        </mxCell>
        <mxCell id="6ueODUvImwOHwKbPPp0Y-53" value="" style="endArrow=none;html=1;rounded=0;" parent="1" edge="1">
          <mxGeometry width="50" height="50" relative="1" as="geometry">
            <mxPoint x="280" y="580" as="sourcePoint" />
            <mxPoint x="280" y="340" as="targetPoint" />
          </mxGeometry>
        </mxCell>
        <mxCell id="6ueODUvImwOHwKbPPp0Y-54" value="" style="endArrow=classic;html=1;rounded=0;entryX=1;entryY=0.5;entryDx=0;entryDy=0;" parent="1" target="6ueODUvImwOHwKbPPp0Y-49" edge="1">
          <mxGeometry width="50" height="50" relative="1" as="geometry">
            <mxPoint x="280" y="340" as="sourcePoint" />
            <mxPoint x="440" y="390" as="targetPoint" />
          </mxGeometry>
        </mxCell>
        <mxCell id="6ueODUvImwOHwKbPPp0Y-56" value="" style="endArrow=classic;html=1;rounded=0;entryX=1;entryY=0.5;entryDx=0;entryDy=0;" parent="1" edge="1">
          <mxGeometry width="50" height="50" relative="1" as="geometry">
            <mxPoint x="820" y="659.76" as="sourcePoint" />
            <mxPoint x="795" y="659.76" as="targetPoint" />
          </mxGeometry>
        </mxCell>
        <mxCell id="6ueODUvImwOHwKbPPp0Y-57" value="" style="endArrow=none;html=1;rounded=0;" parent="1" edge="1">
          <mxGeometry width="50" height="50" relative="1" as="geometry">
            <mxPoint x="160" y="620" as="sourcePoint" />
            <mxPoint x="160" y="640" as="targetPoint" />
          </mxGeometry>
        </mxCell>
        <mxCell id="6ueODUvImwOHwKbPPp0Y-58" value="" style="endArrow=none;html=1;rounded=0;" parent="1" edge="1">
          <mxGeometry width="50" height="50" relative="1" as="geometry">
            <mxPoint x="160" y="640" as="sourcePoint" />
            <mxPoint x="40" y="640" as="targetPoint" />
          </mxGeometry>
        </mxCell>
        <mxCell id="6ueODUvImwOHwKbPPp0Y-59" value="" style="endArrow=none;html=1;rounded=0;" parent="1" edge="1">
          <mxGeometry width="50" height="50" relative="1" as="geometry">
            <mxPoint x="40" y="640" as="sourcePoint" />
            <mxPoint x="40" y="150" as="targetPoint" />
          </mxGeometry>
        </mxCell>
        <mxCell id="6ueODUvImwOHwKbPPp0Y-60" value="" style="endArrow=classic;html=1;rounded=0;entryX=0;entryY=0.5;entryDx=0;entryDy=0;" parent="1" target="6ueODUvImwOHwKbPPp0Y-5" edge="1">
          <mxGeometry width="50" height="50" relative="1" as="geometry">
            <mxPoint x="40" y="150" as="sourcePoint" />
            <mxPoint x="140" y="220" as="targetPoint" />
          </mxGeometry>
        </mxCell>
        <mxCell id="6ueODUvImwOHwKbPPp0Y-61" value="" style="endArrow=none;html=1;rounded=0;exitX=0.5;exitY=1;exitDx=0;exitDy=0;" parent="1" source="6ueODUvImwOHwKbPPp0Y-11" edge="1">
          <mxGeometry width="50" height="50" relative="1" as="geometry">
            <mxPoint x="370" y="350" as="sourcePoint" />
            <mxPoint x="450" y="480" as="targetPoint" />
          </mxGeometry>
        </mxCell>
        <mxCell id="6ueODUvImwOHwKbPPp0Y-62" value="" style="endArrow=none;html=1;rounded=0;" parent="1" edge="1">
          <mxGeometry width="50" height="50" relative="1" as="geometry">
            <mxPoint x="450" y="480" as="sourcePoint" />
            <mxPoint x="600" y="480" as="targetPoint" />
          </mxGeometry>
        </mxCell>
        <mxCell id="6ueODUvImwOHwKbPPp0Y-64" value="" style="endArrow=classic;html=1;rounded=0;entryX=0.993;entryY=0.168;entryDx=0;entryDy=0;entryPerimeter=0;" parent="1" target="6ueODUvImwOHwKbPPp0Y-3" edge="1">
          <mxGeometry width="50" height="50" relative="1" as="geometry">
            <mxPoint x="600" y="130" as="sourcePoint" />
            <mxPoint x="420" y="310" as="targetPoint" />
          </mxGeometry>
        </mxCell>
        <mxCell id="jgTBc7EJy0wMgPJG9trw-1" value="" style="endArrow=none;html=1;rounded=0;" edge="1" parent="1">
          <mxGeometry width="50" height="50" relative="1" as="geometry">
            <mxPoint x="450" y="290" as="sourcePoint" />
            <mxPoint x="580" y="290" as="targetPoint" />
          </mxGeometry>
        </mxCell>
      </root>
    </mxGraphModel>
  </diagram>
</mxfile>
